<svg width="27" height="32" viewBox="0 0 27 32" fill="none" xmlns="http://www.w3.org/2000/svg">
<path fill-rule="evenodd" clip-rule="evenodd" d="M21.9996 11.6472C21.9996 16.9753 17.6807 21.2943 12.3536 21.2943C7.02638 21.2943 2.70752 16.9753 2.70752 11.6472C2.70752 6.319 7.02638 2 12.3536 2C17.6807 2 21.9996 6.319 21.9996 11.6472ZM17.8076 21.9407C16.1806 22.8048 14.3242 23.2943 12.3536 23.2943C5.92163 23.2943 0.70752 18.0797 0.70752 11.6472C0.70752 5.21461 5.92163 0 12.3536 0C18.7855 0 23.9996 5.21461 23.9996 11.6472C23.9996 15.3899 22.2344 18.7203 19.4912 20.8511L26.5258 30.1465L24.931 31.3534L17.8076 21.9407Z" fill="white" fill-opacity="0.2"/>
</svg>
