<svg width="24" height="24" viewBox="0 0 24 24" fill="none" xmlns="http://www.w3.org/2000/svg">
<path d="M15.0089 17H18C20.2091 17 22 15.2091 22 13C22 11.1238 20.7083 9.54938 18.9657 9.11736C18.9884 8.9147 19 8.70871 19 8.5C19 5.46243 16.5376 3 13.5 3C10.9806 3 8.85678 4.69403 8.20557 7.00519C8.13748 7.00174 8.06894 7 8 7C5.79086 7 4 8.79086 4 11C4 11.0568 4.00118 11.1133 4.00352 11.1695C2.83649 11.5803 2 12.6925 2 14C2 15.6569 3.34315 17 5 17H7.84825L12.1318 9.50386C12.6405 8.61351 14 8.97454 14 10V14H15C15.7678 14 16.2492 14.8295 15.8682 15.4961L15.0089 17Z" fill="white"/>
<path d="M9 17L13 10V15H15L11 22V17H9Z" fill="white"/>
<path d="M6.00087 18C6.49954 18 6.82388 18.5248 6.60087 18.9708L5.27169 21.6292C5.15805 21.8564 4.92577 22 4.67169 22C4.17301 22 3.84867 21.4752 4.07169 21.0292L5.40087 18.3708C5.5145 18.1436 5.74678 18 6.00087 18Z" fill="white"/>
<path d="M9.00087 18C9.49954 18 9.82388 18.5248 9.60087 18.9708L8.27169 21.6292C8.15805 21.8564 7.92577 22 7.67169 22C7.17301 22 6.84867 21.4752 7.07169 21.0292L8.40087 18.3708C8.5145 18.1436 8.74678 18 9.00087 18Z" fill="white"/>
</svg>
