<svg width="24" height="24" viewBox="0 0 24 24" fill="none" xmlns="http://www.w3.org/2000/svg">
<g clip-path="url(#clip0_3_9383)">
<path d="M4.39616 12.4643C4.58533 12.3444 4.78883 12.245 5.00352 12.1695C5.00118 12.1133 5 12.0568 5 12C5 10.0145 6.44656 8.36695 8.34325 8.05366C7.62087 7.71354 6.94443 7.24452 6.34835 6.64621C4.78655 5.09278 4.10504 2.98608 4.29672 0.957407C4.35351 0.368666 3.51582 -0.262634 2.98339 0.113309C2.66393 0.340293 2.36577 0.595651 2.0818 0.879381C-0.693935 3.64576 -0.693935 8.14289 2.0818 10.9093C2.76537 11.5975 3.5541 12.1159 4.39616 12.4643Z" fill="white"/>
<path d="M11.06 5.20828L10.5332 3.4617L12.2425 2.16944L10.0874 2.10949L9.37123 0.111157L8.65511 2.10949L6.49998 2.16944L8.20922 3.4617L7.59443 5.5L9.37123 4.29434L10.9065 5.33612C10.9569 5.2926 11.0081 5.24998 11.06 5.20828Z" fill="white"/>
<path d="M17.7157 1.44339L16.6077 2.27602L17.0063 3.59493L15.8578 2.81558L14.7093 3.59493L15.1079 2.27602L14 1.44339L15.3917 1.41008L15.8578 0.111162L16.324 1.41008L17.7157 1.44339Z" fill="white"/>
<path d="M20 19H17.0089L17.8682 17.4961C18.2492 16.8295 17.7678 16 17 16H16V12C16 10.9745 14.6405 10.6135 14.1318 11.5039L9.84825 19H7C5.34315 19 4 17.6569 4 16C4 14.6925 4.83649 13.5803 6.00352 13.1695C6.00118 13.1133 6 13.0568 6 13C6 10.7909 7.79086 9 10 9C10.0689 9 10.1375 9.00175 10.2056 9.00519C10.8568 6.69403 12.9806 5 15.5 5C18.5376 5 21 7.46243 21 10.5C21 10.7087 20.9884 10.9147 20.9657 11.1174C22.7083 11.5494 24 13.1238 24 15C24 17.2091 22.2091 19 20 19Z" fill="white"/>
<path d="M11 19H13V24L17 17H15V12L11 19Z" fill="white"/>
<path d="M10.4009 20.3708L9.07169 23.0292C8.84867 23.4752 9.17301 24 9.67169 24C9.92577 24 10.1581 23.8564 10.2717 23.6292L11.6009 20.9708C11.8239 20.5248 11.4995 20 11.0009 20C10.7468 20 10.5145 20.1436 10.4009 20.3708Z" fill="white"/>
<path d="M7.40087 20.3708L6.07169 23.0292C5.84867 23.4752 6.17301 24 6.67169 24C6.92577 24 7.15805 23.8564 7.27169 23.6292L8.60087 20.9708C8.82388 20.5248 8.49954 20 8.00087 20C7.74678 20 7.5145 20.1436 7.40087 20.3708Z" fill="white"/>
</g>
<defs>
<clipPath id="clip0_3_9383">
<rect width="24" height="24" fill="white"/>
</clipPath>
</defs>
</svg>
